        <svg
          id="Ebene_1"
          data-name="Ebene 1"
          xmlns="http://www.w3.org/2000/svg"
          xlink="http://www.w3.org/1999/xlink"
          viewBox="0 0 1366 768"
        >
          <defs>
            <rect
              x="208.33"
              y="25"
              width="937.22"
              height="701.23"
              fill="none"
            />
          </defs>
          <g>
            <path
              d="M279.54,411.46A207.38,207.38,0,0,0,314.94,430c27.22,11.12,64.88,48.57,79.79,73.07,31,50.94,38.53,94.55,94.92,126.3,57.17,32.18,131.94,31.63,193.45,6,30.39-12.65,52.17-28.26,76-50.25,22.3-20.56,32.86-44.45,51.37-68,22.88-29.08,58.95-55.41,97-55.81,39.21-.42,83.75,20.39,121.9,2.86,28.63-13.17,63.18-41.5,82.9-65.62,2.25-2.76,4.36-5.58,6.39-8.43,14.13-19.82,22.8-41.64,25.51-63.87,6.64-54.65-12.32-121.43-47.4-163.74-27.54-33.21-81.69-43.52-124.14-37.29-19.88,2.92-45.15,12.9-63.76,5-20.27-8.64-30-35.91-41.73-52.47C835.57,33.15,779.38,12.14,724,33.26c-32.64,12.46-63,39.12-80.87,68.21-21.48,34.91-38.72,80.26-80.66,96.91-40.34,16-84.51-2.75-122.41-14.38-34.86-10.7-70.15-15.4-101.8-13.21-56.68,3.91-100,29.74-118.85,70.85a121.93,121.93,0,0,0-4.36,90.87A137.12,137.12,0,0,0,230,362.81c12.17,18.66,29.07,35.21,49.55,48.65"
              fill="#7ac6bc"
            />
            <path
              d="M609.1,436.93a80.6,80.6,0,0,1-25.18-2.58c-1.07.19-2.14.4-3.19.63a84.46,84.46,0,0,0,28.47,3.37,74.09,74.09,0,0,0,15.34-2.8c-1-.23-2.06-.45-3.09-.65a70.44,70.44,0,0,1-12.35,2"
              fill="#003d66"
            />
            <path
              d="M610.1,451.17c-18.51,1.29-35.78-5.6-45.05-9.3l-2.2-.87c-.58.28-1.15.57-1.72.86l3.39,1.34c9.38,3.74,26.84,10.71,45.68,9.39,13.5-.94,25.72-6,34.8-10.67l-1.77-.7c-8.83,4.42-20.44,9.06-33.13,9.95"
              fill="#003d66"
            />
            <path
              d="M611.2,466.83c18.78-1.31,35.13-10.65,43.91-15.66,1.34-.76,2.87-1.63,4.53-2.54l-1.54-.79-3.69,2.09c-8.69,5-24.85,14.19-43.32,15.48s-35.77-5.6-45-9.3a167.81,167.81,0,0,0-17.91-6.2c-.48.36-1,.72-1.44,1.09a159.45,159.45,0,0,1,18.81,6.43c9.39,3.75,26.85,10.72,45.69,9.4"
              fill="#003d66"
            />
            <path
              d="M922,431.22c-9.42-3.74-26.95-10.71-45.7-9.4s-35.12,10.65-43.92,15.67a146.27,146.27,0,0,1-21.25,10.39c-1.08.87-2.15,1.75-3.22,2.65,10.63-3.52,19.49-8.56,25.17-11.81,8.71-5,24.91-14.19,43.32-15.47s35.76,5.59,45.07,9.29c8.55,3.41,23.82,9.49,40.72,9.54l-2.32-1.46c-15.71-.57-29.81-6.18-37.87-9.4"
              fill="#003d66"
            />
            <path
              d="M612.19,481.07c18.79-1.31,35.14-10.65,43.92-15.66a162.47,162.47,0,0,1,17.34-8.83l-1.48-.91a165.73,165.73,0,0,0-16.57,8.5c-8.68,5-24.84,14.19-43.31,15.48s-35.77-5.6-45.05-9.3c-6.93-2.76-18.27-7.25-31.24-8.91-.37.43-.71.87-1.08,1.3,13.18,1.55,24.77,6.15,31.79,8.94,9.38,3.74,26.84,10.71,45.68,9.39"
              fill="#003d66"
            />
            <path
              d="M968.07,454.75c-18.51,1.3-35.78-5.59-45.05-9.29s-26.95-10.71-45.7-9.4-35.12,10.65-43.93,15.66c-8.59,4.91-24.52,14-42.74,15.42-.46.5-.91,1-1.37,1.52.3,0,.6,0,.9,0C809,467.31,825.31,458,834.1,453s24.91-14.19,43.32-15.48,35.76,5.6,45.07,9.3,26.84,10.72,45.68,9.4a71.59,71.59,0,0,0,11.33-1.76l-1.44-1.13a67.71,67.71,0,0,1-10,1.46"
              fill="#003d66"
            />
            <path
              d="M990.87,464a78.54,78.54,0,0,1-21.81,5c-18.51,1.29-35.77-5.6-45-9.31s-27-10.7-45.7-9.39S843.19,460.94,834.39,466s-24.85,14.19-43.31,15.48a71.72,71.72,0,0,1-13.48-.38c-.44.42-.89.86-1.33,1.26a74.25,74.25,0,0,0,14.91.54c18.78-1.31,35.13-10.65,43.91-15.66S860,453,878.41,451.72s35.76,5.6,45.07,9.3,26.84,10.71,45.68,9.4a80.31,80.31,0,0,0,22.91-5.33L990.89,464l0,0"
              fill="#003d66"
            />
            <path
              d="M613.19,495.31C632,494,648.32,484.66,657.1,479.65c6.61-3.77,17.53-10,30.45-13.32l-1.47-1.08c-12.61,3.45-23.2,9.47-29.68,13.16-8.69,5-24.85,14.19-43.31,15.48s-35.78-5.6-45.05-9.3c-8.78-3.49-24.62-9.77-41.91-9.55-.28.48-.53,1-.8,1.45,17.33-.44,33.36,5.92,42.18,9.42,9.38,3.75,26.84,10.72,45.68,9.4"
              fill="#003d66"
            />
            <path
              d="M970.06,483.23c-18.51,1.29-35.78-5.6-45-9.3s-27-10.71-45.7-9.39-35.12,10.65-43.93,15.66-24.85,14.19-43.31,15.48c-10.48.73-20.56-1.16-29-3.61-.61.34-1.22.63-1.83.94,8.86,2.69,19.65,4.88,30.95,4.09,18.79-1.31,35.13-10.64,43.92-15.66S861,467.25,879.41,466s35.76,5.6,45.07,9.3,26.84,10.72,45.68,9.4c12.44-.87,23.79-5.26,32.6-9.57l-1.09-1.06c-8.63,4.18-19.63,8.36-31.61,9.2"
              fill="#003d66"
            />
            <path
              d="M568.5,500.15c9.38,3.75,26.85,10.72,45.68,9.4s35.14-10.65,43.92-15.66S683,479.7,701.42,478.41l1,0-.73-.62-.84-.72c-18.52,1.44-34.7,10.65-43.43,15.62s-24.84,14.18-43.31,15.47-35.77-5.59-45.05-9.29-26.95-10.71-45.7-9.4c-1.36.09-2.7.24-4,.42-.18.5-.34,1-.52,1.52,1.54-.22,3.09-.4,4.66-.51,18.43-1.29,35.76,5.59,45.07,9.29"
              fill="#003d66"
            />
            <path
              d="M971.05,497.47c-18.5,1.3-35.77-5.6-45-9.29s-26.94-10.71-45.69-9.4-35.13,10.64-43.93,15.66-24.85,14.19-43.31,15.48-35.78-5.6-45.06-9.3c-2.26-.9-5-2-8.1-3.09a46.6,46.6,0,0,1-16.2-4.65,78.66,78.66,0,0,0-21.39-1.66c-18.74,1.31-35.13,10.65-43.93,15.67s-24.85,14.18-43.31,15.48-35.78-5.6-45.05-9.3-26.95-10.71-45.7-9.4a71.72,71.72,0,0,0-9.15,1.28c-.09.51-.2,1-.29,1.52a68.92,68.92,0,0,1,9.54-1.38c18.42-1.29,35.76,5.6,45.07,9.3s26.84,10.71,45.68,9.4,35.13-10.65,43.92-15.66,24.91-14.2,43.32-15.48,35.75,5.59,45.07,9.3,26.84,10.71,45.68,9.39,35.13-10.64,43.92-15.66,24.9-14.19,43.32-15.48,35.75,5.6,45.06,9.3,26.85,10.71,45.68,9.39c16.93-1.18,31.85-8.86,41.07-14-.33-.36-.64-.72-1-1.08-9.13,5.11-23.74,12.55-40.19,13.7"
              fill="#003d66"
            />
            <path
              d="M1015.36,496.23c-8.68,5-24.85,14.19-43.31,15.48s-35.77-5.6-45-9.3-27-10.71-45.7-9.39-35.12,10.64-43.93,15.66-24.84,14.19-43.31,15.48-35.77-5.6-45-9.3-27-10.71-45.69-9.4-35.13,10.65-43.94,15.67-24.84,14.18-43.3,15.47S580.3,531,571,527.3s-26.95-10.7-45.69-9.39a72.19,72.19,0,0,0-12,1.93c0,.5,0,1-.08,1.49a71.16,71.16,0,0,1,12.22-2c18.42-1.29,35.75,5.6,45.07,9.3s26.84,10.72,45.68,9.4,35.13-10.65,43.91-15.67,24.91-14.18,43.32-15.47,35.76,5.59,45.07,9.29,26.85,10.72,45.68,9.4,35.14-10.65,43.92-15.66S863,495.73,881.4,494.44s35.76,5.6,45.07,9.3,26.84,10.71,45.68,9.4,35.14-10.65,43.92-15.67c1.38-.79,3-1.69,4.72-2.65-.29-.37-.61-.75-.91-1.12-1.67.91-3.19,1.78-4.52,2.53"
              fill="#003d66"
            />
            <path
              d="M1016.36,510.47c-8.69,5-24.85,14.19-43.32,15.48s-35.77-5.6-45-9.3-26.94-10.7-45.69-9.39-35.13,10.64-43.93,15.66-24.85,14.19-43.31,15.48-35.78-5.6-45-9.3-27-10.71-45.7-9.4-35.12,10.65-43.93,15.67-24.85,14.18-43.31,15.47-35.78-5.59-45.05-9.3-26.95-10.7-45.7-9.39a72.69,72.69,0,0,0-13.14,2.2c0,.48.05,1,.08,1.45a71.91,71.91,0,0,1,13.16-2.23c18.43-1.29,35.76,5.6,45.07,9.3s26.85,10.71,45.68,9.4,35.13-10.65,43.92-15.66,24.91-14.2,43.32-15.48,35.76,5.59,45.07,9.3,26.84,10.71,45.68,9.39,35.13-10.65,43.92-15.66S864,510,882.4,508.68s35.76,5.6,45.06,9.3,26.85,10.71,45.68,9.4,35.14-10.65,43.93-15.67c3-1.71,6.94-3.95,11.53-6.18l-.8-1.2c-4.55,2.22-8.45,4.44-11.44,6.14"
              fill="#003d66"
            />
            <path
              d="M1017.35,524.71c-8.68,5-24.85,14.19-43.31,15.48s-35.77-5.6-45-9.3-27-10.71-45.7-9.4-35.12,10.65-43.93,15.67-24.84,14.18-43.31,15.47-35.77-5.59-45-9.3-27-10.7-45.69-9.39-35.13,10.65-43.93,15.66-24.85,14.19-43.32,15.48-35.77-5.6-45-9.3-26.95-10.7-45.7-9.39a71.56,71.56,0,0,0-12.8,2.11c.07.48.12,1,.2,1.43a70.6,70.6,0,0,1,12.7-2.12c18.42-1.29,35.76,5.6,45.06,9.3s26.85,10.71,45.68,9.4,35.14-10.65,43.92-15.67,24.92-14.19,43.33-15.48,35.75,5.6,45.06,9.3,26.85,10.72,45.68,9.4,35.14-10.65,43.92-15.66,24.91-14.19,43.32-15.48,35.76,5.59,45.07,9.29,26.85,10.72,45.68,9.4S1009.28,531,1018.06,526a160.81,160.81,0,0,1,17.34-8.82c-.21-.43-.43-.85-.66-1.27a161.6,161.6,0,0,0-17.39,8.85"
              fill="#003d66"
            />
            <path
              d="M1018.35,539c-8.69,5-24.85,14.19-43.31,15.48s-35.78-5.6-45-9.3-27-10.71-45.7-9.4-35.12,10.65-43.93,15.67-24.85,14.18-43.31,15.47-35.77-5.59-45-9.29-27-10.71-45.7-9.4-35.12,10.65-43.93,15.66S637.52,578,619.06,579.32s-35.77-5.6-45-9.3-27-10.71-45.7-9.4A72.62,72.62,0,0,0,517,562.38c.11.46.23.92.33,1.39a68.74,68.74,0,0,1,11.06-1.72c18.43-1.29,35.76,5.6,45.07,9.3s26.85,10.71,45.68,9.39,35.14-10.64,43.92-15.66S688,550.89,706.4,549.6s35.76,5.6,45.07,9.3,26.84,10.72,45.68,9.4,35.13-10.65,43.92-15.67,24.91-14.19,43.32-15.47,35.76,5.59,45.06,9.29,26.85,10.72,45.69,9.4,35.13-10.65,43.92-15.66a144.57,144.57,0,0,1,21.67-10.54c-.15-.45-.31-.9-.47-1.35A147.41,147.41,0,0,0,1018.35,539"
              fill="#003d66"
            />
            <path
              d="M1019.34,553.19c-8.68,5-24.85,14.19-43.31,15.48s-35.77-5.6-45-9.3S904,548.66,885.29,550s-35.13,10.65-43.93,15.66-24.86,14.19-43.31,15.48-35.78-5.59-45.06-9.29-26.94-10.71-45.69-9.4-35.13,10.65-43.93,15.66-24.85,14.19-43.31,15.48-35.78-5.6-45-9.3-27-10.71-45.7-9.4a70,70,0,0,0-8.68,1.2l.42,1.37a67,67,0,0,1,8.36-1.14c18.42-1.29,35.76,5.59,45.06,9.29s26.85,10.72,45.69,9.4,35.13-10.65,43.91-15.66S689,565.13,707.4,563.84s35.75,5.6,45.06,9.3,26.85,10.71,45.69,9.4,35.13-10.65,43.91-15.66,24.91-14.2,43.33-15.48,35.75,5.59,45.06,9.29,26.85,10.72,45.68,9.4,35.14-10.65,43.92-15.66a138.38,138.38,0,0,1,24-11.4c-.08-.48-.15-.95-.24-1.43a140.16,140.16,0,0,0-24.52,11.59"
              fill="#003d66"
            />
            <path
              d="M1020.34,567.43c-8.68,5-24.85,14.18-43.31,15.47s-35.78-5.59-45-9.29c-9.42-3.74-27-10.71-45.7-9.4s-35.12,10.65-43.93,15.66S817.5,594.06,799,595.35s-35.77-5.59-45-9.3-27-10.7-45.7-9.39-35.12,10.64-43.93,15.66-24.85,14.19-43.31,15.48-35.77-5.6-45-9.3-26.94-10.71-45.69-9.4c-1.72.12-3.41.33-5.09.58l.51,1.36c1.55-.22,3.1-.4,4.67-.51,18.43-1.29,35.76,5.59,45.07,9.3s26.85,10.71,45.68,9.39,35.14-10.65,43.92-15.66,24.91-14.19,43.32-15.48,35.76,5.6,45.07,9.3,26.84,10.71,45.68,9.4,35.13-10.65,43.92-15.67,24.9-14.19,43.32-15.48,35.76,5.6,45.07,9.3,26.84,10.72,45.68,9.4,35.13-10.65,43.92-15.66a138.73,138.73,0,0,1,24-11.39c0-.5,0-1,0-1.51-10.43,3.51-19.14,8.46-24.75,11.66"
              fill="#003d66"
            />
            <path
              d="M1021.33,581.67c-8.68,5-24.85,14.19-43.31,15.48s-35.77-5.6-45-9.3-26.94-10.71-45.69-9.4-35.13,10.65-43.93,15.67S818.5,608.3,800,609.59,764.26,604,755,600.3s-26.94-10.71-45.69-9.4-35.13,10.64-43.93,15.66S640.51,620.75,622.05,622s-35.78-5.6-45-9.3-27-10.71-45.7-9.4l-.47,0c.21.46.41.92.61,1.37,18.41-1.27,35.73,5.61,45,9.31s26.84,10.71,45.68,9.39,35.13-10.65,43.92-15.66,24.91-14.19,43.32-15.48,35.76,5.6,45.07,9.3,26.84,10.71,45.68,9.39,35.13-10.64,43.91-15.66,24.91-14.19,43.33-15.48,35.75,5.6,45.06,9.3,26.85,10.72,45.68,9.4,35.14-10.65,43.92-15.66a147,147,0,0,1,20.89-10.26c.14-.55.26-1.11.39-1.66a147.12,147.12,0,0,0-22,10.68"
              fill="#003d66"
            />
            <path
              d="M1022.33,595.9c-8.68,5-24.85,14.19-43.31,15.48s-35.78-5.59-45-9.3c-9.42-3.74-27-10.71-45.7-9.39s-35.12,10.65-43.93,15.66S819.49,622.54,801,623.83s-35.77-5.59-45-9.3-27-10.71-45.69-9.4-35.13,10.65-43.94,15.67S641.5,635,623,636.27s-35.77-5.59-45-9.29c-8.52-3.39-23.7-9.4-40.41-9.54l.74,1.44c16.15.31,30.84,6.12,39.14,9.42,9.39,3.75,26.85,10.72,45.68,9.4s35.14-10.65,43.92-15.66,24.91-14.19,43.33-15.48,35.75,5.6,45.06,9.3,26.84,10.71,45.68,9.39,35.14-10.64,43.92-15.66S870,595.4,888.37,594.11s35.76,5.6,45.07,9.3,26.84,10.72,45.68,9.4,35.14-10.65,43.92-15.66c3.31-1.89,7.72-4.4,12.91-6.85.38-.69.74-1.38,1.1-2.08-6,2.72-11,5.58-14.72,7.68"
              fill="#003d66"
            />
            <path
              d="M980,625.62c-18.5,1.3-35.77-5.59-45-9.29-9.43-3.75-27-10.71-45.7-9.4s-35.12,10.65-43.93,15.66S820.49,636.78,802,638.07s-35.78-5.6-45-9.3c-9.42-3.74-27-10.71-45.7-9.4S676.16,630,667.35,635,642.5,649.22,624,650.52s-35.78-5.6-45-9.3c-7.26-2.88-19.33-7.66-33-9.12l1,1.54c13.06,1.58,24.53,6.13,31.5,8.9,9.38,3.75,26.84,10.72,45.68,9.4s35.14-10.65,43.92-15.66S693,622.09,711.38,620.8s35.75,5.6,45.07,9.3,26.84,10.71,45.68,9.39,35.13-10.64,43.92-15.66,24.91-14.19,43.32-15.48,35.76,5.6,45.06,9.3,26.85,10.72,45.69,9.4c12.78-.9,24.44-5.51,33.35-9.94q2.26-1.92,4.37-3.89c-9.19,5-22.74,11.35-37.83,12.4"
              fill="#003d66"
            />
            <path
              d="M936,630.56c-9.42-3.74-27-10.7-45.7-9.39s-35.12,10.64-43.92,15.66S821.49,651,803,652.31s-35.77-5.6-45-9.3-27-10.71-45.69-9.4-35.13,10.65-43.93,15.67S643.5,663.46,625,664.76s-35.77-5.6-45-9.31a150.82,150.82,0,0,0-22.14-7.27c.52.62,1,1.25,1.58,1.86a155.11,155.11,0,0,1,20,6.74c9.38,3.75,26.85,10.72,45.68,9.4s35.14-10.65,43.92-15.66S694,636.33,712.38,635s35.75,5.6,45.06,9.29,26.85,10.72,45.68,9.4,35.14-10.65,43.92-15.66,24.91-14.19,43.32-15.48,35.76,5.6,45.07,9.3c8.45,3.37,23.47,9.34,40.13,9.53l2.56-1.43c-17.4.44-33.37-5.92-42.16-9.43"
              fill="#003d66"
            />
            <path
              d="M937,644.8c-9.42-3.74-27-10.7-45.7-9.39s-35.12,10.64-43.93,15.66S822.48,665.26,804,666.55s-35.78-5.6-45-9.3c-9.42-3.74-27-10.71-45.7-9.4s-35.12,10.65-43.93,15.67S644.5,677.7,626,679s-35.77-5.59-45-9.29l-1.73-.69c1.39,1.1,2.8,2.16,4.22,3.21,9.83,3.84,25.68,9.38,42.66,8.2,18.79-1.32,35.14-10.65,43.92-15.67s24.91-14.19,43.32-15.47,35.76,5.59,45.07,9.29,26.84,10.72,45.68,9.4,35.14-10.65,43.92-15.66,24.91-14.19,43.32-15.48,35.76,5.6,45.06,9.3a155.17,155.17,0,0,0,19.89,6.74l1.7-1.06a148.68,148.68,0,0,1-21-7"
              fill="#003d66"
            />
            <path
              d="M938,659c-9.42-3.74-27-10.71-45.69-9.4s-35.13,10.65-43.93,15.67S823.48,679.49,805,680.79s-35.78-5.6-45.06-9.3-27-10.71-45.69-9.4-35.13,10.65-43.93,15.67c-8.53,4.86-24.28,13.83-42.32,15.38,1.47.33,3,.64,4.42.91C649,691.57,663.11,683.53,671,679c8.71-5,24.92-14.19,43.33-15.47s35.75,5.59,45.07,9.29,26.84,10.72,45.67,9.4,35.14-10.65,43.92-15.66,24.91-14.19,43.32-15.48,35.76,5.6,45.07,9.3c1.33.53,2.84,1.13,4.48,1.75l1.47-1c-2-.76-3.84-1.49-5.42-2.12"
              fill="#003d66"
            />
            <path
              d="M893.25,663.88c-18.73,1.31-35.12,10.65-43.93,15.67S824.47,693.73,806,695s-35.77-5.6-45-9.3-27-10.71-45.7-9.4S680.14,687,671.33,692l-2.74,1.56c1.81-.41,3.59-.88,5.36-1.4,9-5.12,24.27-13.2,41.41-14.4,18.43-1.28,35.76,5.6,45.07,9.3s26.84,10.72,45.68,9.4S841.25,685.8,850,680.79s24.91-14.19,43.32-15.48c13.29-.93,26,2.4,35.56,5.71l1.43-1c-9.77-3.46-23.09-7.09-37.09-6.12"
              fill="#003d66"
            />
            <path
              d="M894.25,678.13c-18.74,1.31-35.13,10.64-43.93,15.66S825.47,708,807,709.27s-35.78-5.6-45.06-9.3c-1.2-.48-2.54-1-4-1.57,1.34,1.06,2.68,2.11,4,3.12,9.5,3.79,26.64,10.46,45.12,9.17C825.9,709.37,842.24,700,851,695s24.9-14.2,43.32-15.48a76.7,76.7,0,0,1,20.76,1.58l1.5-1.14a79.5,79.5,0,0,0-22.36-1.86"
              fill="#003d66"
            />
            <path
              d="M895.24,692.36C876.51,693.67,860.12,703,851.31,708S826.46,722.21,808,723.5c-.51,0-1,0-1.53.07,1.47.4,2.95.76,4.42,1.09,17.61-2,32.79-10.63,41.13-15.39,8.71-5,24.91-14.19,43.32-15.48,1.48-.11,3-.14,4.42-.14l1.62-1.42c-2,0-4.07,0-6.14.13"
              fill="#003d66"
            />
            <path
              d="M852.31,722.27c-2,1.14-4.41,2.51-7.14,4l2.67-.18,1-.2c1.52-.84,2.91-1.63,4.15-2.34,6.45-3.67,17-9.69,29.58-13.09q1.23-1,2.4-2.07c-13.92,3.25-25.7,9.94-32.69,13.93"
              fill="#003d66"
            />
          </g>
</svg>
