<svg id="Ebene_2" data-name="Ebene 2" xmlns="http://www.w3.org/2000/svg" viewBox="0 0 42.52 42.52"><path d="M16,25.87c0,.07.1.1.13.18a2.56,2.56,0,0,1,.28.7.63.63,0,0,1,0,.19,3.2,3.2,0,0,1-.07.87A7.71,7.71,0,0,1,16,28.92c0,.08-.07.15-.11.22a5.26,5.26,0,0,1-1.1,1.43l-.31.26a5.73,5.73,0,0,1-.63.47,2.76,2.76,0,0,1-.71.35l-.5.18a5.21,5.21,0,0,1-1.41.35c-.39,0-.78,0-1.17,0a6,6,0,0,1-2-.58l-.52-.25a4.55,4.55,0,0,1-1.29-.94,5.29,5.29,0,0,1-1-1.29,6.05,6.05,0,0,1-.44-1,5.61,5.61,0,0,1-.24-1.71l0-.87a2.6,2.6,0,0,1,.19-.95,6.25,6.25,0,0,1,.41-1.12.37.37,0,0,1,0-.11c.27-.28.38-.63.64-.9s.35-.43.55-.63a6,6,0,0,1,2-1.16,7.6,7.6,0,0,1,.92-.3,6.56,6.56,0,0,1,1.4-.1c.21,0,.42,0,.63,0l.26,0a13.48,13.48,0,0,0,1.32.39,1.21,1.21,0,0,1,.25.08,7.64,7.64,0,0,1,1.2.77c.24.21.48.41.71.64a5.52,5.52,0,0,1,.56.78,3.14,3.14,0,0,1,.24.39,3.75,3.75,0,0,1,.24.44,4,4,0,0,1,.39,1c.05.23.19.47.24.68s-.2.41-.47.32a.89.89,0,0,1-.55-.47l-.12-.26c0-.07,0-.17-.11-.21a3.33,3.33,0,0,1-.7-.9s-.06-.11-.11-.14a1.1,1.1,0,0,1-.38-.54.71.71,0,0,0-.11-.17,16.2,16.2,0,0,0-1.29-1.09,4,4,0,0,0-.71-.36,5.18,5.18,0,0,0-1.31-.44,3.84,3.84,0,0,0-.76,0l-.34,0a3,3,0,0,0-1.3.31,3,3,0,0,0-.41.17,4.77,4.77,0,0,0-.81.61c-.15.12-.27.26-.42.39a2.77,2.77,0,0,0-.72,1A2,2,0,0,1,6,24a4.36,4.36,0,0,0-.47,1.11,4.74,4.74,0,0,0-.06,2.28,5,5,0,0,0,1.28,2.39A6.83,6.83,0,0,0,8,30.7a5.79,5.79,0,0,0,1.13.45,7.83,7.83,0,0,0,1.46.26,3.24,3.24,0,0,0,.69,0,11.5,11.5,0,0,0,1.14-.23l.21-.07A5.62,5.62,0,0,0,14,30.29a4.1,4.1,0,0,0,.84-1.18,4,4,0,0,0,.42-.85,8.29,8.29,0,0,0,.39-1.39,2.47,2.47,0,0,1,.06-.29,1.22,1.22,0,0,1,.16-.5S16,26,16,25.87Z" fill="#68c0b5"/><path d="M37.39,25.87a1.24,1.24,0,0,1,.14.18,2.93,2.93,0,0,1,.28.7,1.23,1.23,0,0,1,0,.19,3.2,3.2,0,0,1-.07.87,7.71,7.71,0,0,1-.39,1.11l-.11.22a5.43,5.43,0,0,1-1.09,1.43l-.32.26a5.73,5.73,0,0,1-.63.47,2.76,2.76,0,0,1-.71.35l-.5.18a5.21,5.21,0,0,1-1.41.35c-.38,0-.78,0-1.17,0a6,6,0,0,1-2-.58l-.52-.25a4.55,4.55,0,0,1-1.29-.94,5.29,5.29,0,0,1-1-1.29,6.05,6.05,0,0,1-.44-1A5.61,5.61,0,0,1,26,26.41l.05-.87a2.6,2.6,0,0,1,.19-.95,6.25,6.25,0,0,1,.41-1.12.37.37,0,0,1,0-.11c.27-.28.38-.63.64-.9s.35-.43.55-.63a6,6,0,0,1,2-1.16,7.6,7.6,0,0,1,.92-.3,6.56,6.56,0,0,1,1.4-.1c.21,0,.42,0,.63,0l.26,0a13.48,13.48,0,0,0,1.32.39,1.21,1.21,0,0,1,.25.08,7.64,7.64,0,0,1,1.2.77c.24.21.48.41.71.64a5.52,5.52,0,0,1,.56.78,3.14,3.14,0,0,1,.24.39,3.75,3.75,0,0,1,.24.44,4,4,0,0,1,.39,1c.06.23.19.47.25.68s-.21.41-.48.32a.87.87,0,0,1-.54-.47L37,25.11c0-.07-.05-.17-.11-.21a3.33,3.33,0,0,1-.7-.9s-.06-.11-.11-.14a1.17,1.17,0,0,1-.38-.54.71.71,0,0,0-.11-.17,16.2,16.2,0,0,0-1.29-1.09,4,4,0,0,0-.71-.36,5.18,5.18,0,0,0-1.31-.44,3.84,3.84,0,0,0-.76,0l-.34,0a3,3,0,0,0-1.3.31,3.56,3.56,0,0,0-.41.17,4.77,4.77,0,0,0-.81.61c-.15.12-.27.26-.42.39a2.77,2.77,0,0,0-.72,1,1.23,1.23,0,0,1-.14.25,4.36,4.36,0,0,0-.47,1.11,4.87,4.87,0,0,0-.06,2.28,5.12,5.12,0,0,0,1.28,2.39,6.83,6.83,0,0,0,1.23,1,5.79,5.79,0,0,0,1.13.45,7.83,7.83,0,0,0,1.46.26,3.24,3.24,0,0,0,.69,0,11,11,0,0,0,1.14-.23l.21-.07a5.46,5.46,0,0,0,1.42-.78,4.1,4.1,0,0,0,.84-1.18,4.52,4.52,0,0,0,.43-.85,9.3,9.3,0,0,0,.38-1.39,2.47,2.47,0,0,1,.06-.29,1.08,1.08,0,0,1,.17-.5A.76.76,0,0,0,37.39,25.87Z" fill="#68c0b5"/><path d="M33,27.4a.47.47,0,0,1-.17,0,2.82,2.82,0,0,1-.48-.19l-.09-.06a2.9,2.9,0,0,1-.34-.36c-.1-.17-.24-.33-.36-.51l-.07-.1c-.12-.31-.38-.49-.49-.81a1.54,1.54,0,0,0-.08-.19l-.21-.35a1.1,1.1,0,0,1-.16-.37c0-.09-.07-.17-.11-.26a4.13,4.13,0,0,1-.36-.65c-.07-.19-.19-.36-.27-.54-.16-.33-.3-.66-.44-1a1.15,1.15,0,0,0-.14-.27,4.59,4.59,0,0,1-.38-.73c-.12-.25-.21-.51-.31-.78l-.2-.54c-.1-.29-.19-.59-.27-.89a2.16,2.16,0,0,0-.15-.45,1.24,1.24,0,0,1-.18-.51c-.14-.17-.12-.43-.26-.6a.09.09,0,0,1,0-.06c0-.24-.14-.39-.19-.59a3.36,3.36,0,0,0-.2-.43c-.14-.42-.29-.83-.45-1.24l-.25-.49c-.11-.25-.22-.5-.34-.75-.06-.1-.13-.2-.2-.3a.33.33,0,0,1-.07-.13.79.79,0,0,0-.32-.57l-.05,0h0c-.19,0-.32.05-.63.05s-.36.05-.53.06l-.54,0-.25,0-.28.05c-.2,0-.4.09-.59.11a1.28,1.28,0,0,0-.38.16c-.16-.07-.22-.23-.17-.49a.74.74,0,0,1,.3-.52l.17-.08s.11,0,.15-.08c.23-.35.55-.33.71-.4s.09,0,.13,0,.31-.07.47-.06a.61.61,0,0,0,.14,0,1.88,1.88,0,0,1,.61-.09l.89,0h.59c.08.16.17.33.24.5l.19.45a1.2,1.2,0,0,1,.1.28l.15.48c.06.17.14.33.2.49l.09.22a4.28,4.28,0,0,0,.31.87c.05.09.06.2.1.29l.3.61a2.28,2.28,0,0,1,.15.36,2.91,2.91,0,0,0,.29.76.36.36,0,0,1,.07.18c.07.25.13.51.21.76.14.46.29.92.45,1.37s.41,1,.63,1.54c.13.29.26.57.37.87s.23.43.31.65a6.32,6.32,0,0,1,.34.81,1.56,1.56,0,0,0,.17.37,3.15,3.15,0,0,1,.27.63l.06.12c.14.28.24.57.38.86s.41.41.58.66.21.32.34.48a5,5,0,0,1,.46.76.65.65,0,0,1,.08.17.41.41,0,0,1,0,.34S33,27.34,33,27.4Z" fill="#68c0b5"/><path d="M20.92,25.9a1.1,1.1,0,0,1-.21.14,7.2,7.2,0,0,1-.74.34l-.2.06a9,9,0,0,1-.93.14c-.39,0-.81.07-1.22.1a1,1,0,0,1-.25,0c-.65,0-1.21.13-1.86.09H15.1l-.81,0a4.28,4.28,0,0,1-.8,0H12.8c-.48,0-1,0-1.46,0a.91.91,0,0,1-.81-.75,1.21,1.21,0,0,1,0-.3.94.94,0,0,1,.11-.42c.08-.16.21-.33.31-.49l.94-1.35.63-.88a4.68,4.68,0,0,0,.33-.49,15.38,15.38,0,0,1,.9-1.37c.31-.45.64-.89,1-1.33L15,19l.42-.58.1-.12a.88.88,0,0,1,.71-.26h.4l.23,0,.91.09c.31,0,.62.06.93.06a5.29,5.29,0,0,1,1.05.06c.43-.05.88.09,1.31,0a.17.17,0,0,1,.12,0,6.31,6.31,0,0,0,1.22.08c.31,0,.62,0,.93,0l2.59.14c.37,0,.91,0,1.31,0l.39.08a.14.14,0,0,1,.14.13.61.61,0,0,1-.05.18,4.24,4.24,0,0,1-.37.84c-.13.26-.24.54-.32.74a2.1,2.1,0,0,1-.13.26,4.71,4.71,0,0,0-.68,1.41,1.17,1.17,0,0,1-.11.28c-.27.46-.45,1-.69,1.45-.16.31-.27.65-.42,1l-.48,1,0,.07a.85.85,0,0,1-.22.28.91.91,0,0,1-.33.1l-.71.05c-.4.05-.79.09-1.18.11a4,4,0,0,0-.74.17c-.32-.08-.43-.23-.33-.5a.87.87,0,0,1,.59-.51l.34-.09a.83.83,0,0,0,.28-.08,1.84,1.84,0,0,1,.76-.3l.36-.05.15,0,0,0s0,0,0,0a.26.26,0,0,0,0-.1h0a1.19,1.19,0,0,0,.1-.16,1.57,1.57,0,0,0,.14-.25,12.84,12.84,0,0,1,1-2.18c.18-.34.33-.69.52-1l.5-.84.25-.42.13-.21.06-.1,0,0a1,1,0,0,0,.15-.19s.06-.09,0-.09a.49.49,0,0,0-.19-.08l-.19,0h-.45c-.2,0-.4,0-.59,0H23.65c-.26,0-.51,0-.76,0a10.9,10.9,0,0,0-1.61-.07,1.64,1.64,0,0,1-.38,0l-1.53-.15c-.94-.08-1.9-.15-2.82-.2h-.31c-.12,0-.15.13-.22.19-.5.67-1,1.4-1.52,2.11l-1.08,1.51c-.29.38-.53.79-.81,1.18s-.67,1-1.08,1.53a2.7,2.7,0,0,0-.21.35c0,.05-.07.11,0,.18s.12,0,.18.05c.42.06.95.05,1.47.09h.28l1.85,0c.59,0,1.09-.18,1.69-.23l1.14-.09a17.54,17.54,0,0,1,1.76-.08,2.22,2.22,0,0,1,.37,0,1.23,1.23,0,0,1,.62.12A1.23,1.23,0,0,0,20.92,25.9Z" fill="#68c0b5"/><path d="M12.13,16.15c0-.07,0-.15,0-.19a2.17,2.17,0,0,1,.14-.39s0-.05,0-.05.11-.07.17,0,.15.05.23.08a0,0,0,0,1,0,0c.12.13.22,0,.34.1s.05.05.08.05a.38.38,0,0,0,.15,0,.21.21,0,0,1,.14.07.11.11,0,0,0,.1,0c.09,0,.18-.06.27,0s.15,0,.22,0l.39,0a.15.15,0,0,0,.11,0,.66.66,0,0,1,.3-.13,1.57,1.57,0,0,1,.3-.05l.21,0h.34a.33.33,0,0,0,.17,0c.06,0,.12-.08.19,0s.16,0,.24-.07,0,0,0,0,.15,0,.22,0,.08,0,.21,0l.89,0,.41,0h.33v.24a1.81,1.81,0,0,0,0,.23.14.14,0,0,1,0,.11,1,1,0,0,0,0,.56.43.43,0,0,1,0,.11,1.5,1.5,0,0,0,0,.29.62.62,0,0,1,0,.23c0,.07,0,.13,0,.2a.89.89,0,0,1-.07.19l0,.09,0,.1a1,1,0,0,1-.08.22s0,.09,0,.13a.57.57,0,0,1-.38.06c-.14,0-.23-.05-.24-.11v-.06s0,0,0-.05-.09-.2-.11-.26,0,0,0,0,0-.12,0-.17,0,0,0-.06a.81.81,0,0,1,.06-.43c0-.07,0-.13,0-.2l.09-.42a1.33,1.33,0,0,0,0-.2h-.1a.8.8,0,0,0-.37,0s-.07,0-.12,0l-.27.1a.28.28,0,0,1-.13,0,.45.45,0,0,0-.29.09.11.11,0,0,1-.07,0H16a4.82,4.82,0,0,0-.52.11c-.2.06-.4.14-.6.22a1.67,1.67,0,0,1-.34.11c-.09,0-.18.09-.26.1s-.21.09-.32,0-.1,0-.15,0a.32.32,0,0,1-.25,0h0a1,1,0,0,1-.34-.11c-.11,0-.2.2-.31.22a1.48,1.48,0,0,0-.21,0c-.11,0-.22-.07-.32-.17a.22.22,0,0,1-.07-.09.85.85,0,0,1-.11-.37C12.17,16.29,12.15,16.24,12.13,16.15Z" fill="#68c0b5"/></svg>