<svg id="Ebene_2" data-name="Ebene 2" xmlns="http://www.w3.org/2000/svg" viewBox="0 0 42.52 42.52"><path d="M41.54,21.26a5.51,5.51,0,0,1,.11.67,12.45,12.45,0,0,1,.12,2.4c0,.21,0,.44,0,.65a12,12,0,0,1-.24,1.46,7.88,7.88,0,0,1-.36,1.47A21.78,21.78,0,0,1,39.6,31.6l-.41.71A19.35,19.35,0,0,1,35.35,37a12.6,12.6,0,0,1-1,.87l-1.05.81c-.36.26-.75.48-1.12.72a15.57,15.57,0,0,1-2.33,1.2c-.52.24-1.12.41-1.68.63a21.25,21.25,0,0,1-2.32.69,24.22,24.22,0,0,1-2.41.4l-1.94.09c-.65,0-1.31,0-2-.07a20.93,20.93,0,0,1-6.85-1.81c-.57-.29-1.19-.55-1.73-.86a16.28,16.28,0,0,1-2.26-1.44,18.85,18.85,0,0,1-2-1.74,19.3,19.3,0,0,1-3.33-4.25,12.93,12.93,0,0,1-.88-1.64,15.3,15.3,0,0,1-.73-1.72,20.26,20.26,0,0,1-1.2-5.79,27.27,27.27,0,0,1,0-3,9.67,9.67,0,0,1,.16-1.69A12.06,12.06,0,0,1,1,16.75a22.15,22.15,0,0,1,1.36-4,2.53,2.53,0,0,1,.18-.37c.33-.56.62-1.15,1-1.69A11.19,11.19,0,0,1,4.61,9.1,23.14,23.14,0,0,1,6.54,6.83a20.64,20.64,0,0,1,6.88-4.49l1.64-.61c.56-.16,1.13-.29,1.69-.45.83-.19,1.69-.27,2.54-.39A24.31,24.31,0,0,1,21.85.83,19.08,19.08,0,0,1,24.12,1c.32.05.63.09.93.15.81.18,1.61.43,2.41.64s1.59.48,2.34.83l.87.38c.76.39,1.47.86,2.2,1.3a17.94,17.94,0,0,1,2,1.56,24.7,24.7,0,0,1,2.41,2.39l1,1.35c.32.46.6.95.9,1.43A15.36,15.36,0,0,1,40,12.44l.4.78.32.81a11.8,11.8,0,0,1,.64,1.81,11.91,11.91,0,0,1,.46,1.85c.07.4.16.82.26,1.22s.12.81.17,1.16c0,1-.16,1.39-.44,1.08a4,4,0,0,1-.61-1.83c-.06-.35-.15-.7-.23-1a8.13,8.13,0,0,0-.21-.85,22.5,22.5,0,0,1-.87-2.18c-.33-.71-.55-1.4-.81-1.83-.13-.22-.23-.48-.36-.67-.51-.81-1-1.58-1.43-2.38-.18-.24-.33-.49-.52-.71a23.17,23.17,0,0,0-5.36-4.82,18.36,18.36,0,0,0-3.06-1.56,19.71,19.71,0,0,0-5.66-1.43c-.54,0-1.07-.09-1.6-.09l-1.61.07c-.46,0-.92.11-1.39.16a21,21,0,0,0-2.71.54,18.52,18.52,0,0,0-2.59,1,14.2,14.2,0,0,0-1.6.82l-.89.54c-.28.19-.55.41-.83.61s-.55.4-.82.62l-.76.7A21.29,21.29,0,0,0,6.27,8.48a22.07,22.07,0,0,0-1.54,1.93,15.06,15.06,0,0,0-1.21,2.14c-.15.34-.34.69-.52,1a20.58,20.58,0,0,0-1.42,4.49A19.67,19.67,0,0,0,7,35.68a22.89,22.89,0,0,0,4.67,3.5,21.29,21.29,0,0,0,4.19,1.67,23.42,23.42,0,0,0,5.42.8,21.79,21.79,0,0,0,2.53-.17A22.71,22.71,0,0,0,28,40.53l.77-.27a20.32,20.32,0,0,0,5.11-2.9,18,18,0,0,0,3.55-4,13.31,13.31,0,0,0,1-1.5,14.21,14.21,0,0,0,.84-1.59A22.35,22.35,0,0,0,41,25.11c.07-.41.13-.79.18-1.13.18-.85.17-1.54.3-1.92C41.46,21.92,41.49,21.6,41.54,21.26Z" fill="#003e66"/><path d="M17.42,14.5a1,1,0,0,1,.14.24c.11.31.26.5.35.84a1.89,1.89,0,0,1,.05.23c.05.34.13.68.15,1s.07.92.09,1.38a2.64,2.64,0,0,1,0,.28c0,.73.13,1.36.08,2.09a3.68,3.68,0,0,0,0,.47l0,.91a6.72,6.72,0,0,1,0,.9c0,.2,0,.41,0,.61,0,.56.06,1.11,0,1.67s0,.89,0,1.34l0,2.44c0,.11,0,.06,0,.09s0,0,0,0h0c.06,0-.15.16.58-.34L20,28c.58-.36,1.16-.73,1.76-1.08a10.07,10.07,0,0,0,.88-.56,6.76,6.76,0,0,1,1-.65c.37-.32.85-.51,1.21-.84l.12-.08A6.93,6.93,0,0,0,26.09,24c.3-.17.57-.41.86-.6l2.15-1.39h0l-.8-.49-1.5-1c-.23-.14-.48-.26-.71-.39a1.69,1.69,0,0,1-.29-.17,6.42,6.42,0,0,0-1.51-.9A1.68,1.68,0,0,1,24,19c-.5-.34-1.05-.6-1.56-.92-.33-.2-.7-.37-1-.57l-1-.6-.5-.27-.55-.29c-.4-.19-.8-.39-1.19-.6a5.71,5.71,0,0,0-.8-.31c-.26-.25-.28-.44,0-.61a.93.93,0,0,1,.84-.09l.37.13a1,1,0,0,0,.31.1,4.14,4.14,0,0,1,1.57.5,1,1,0,0,0,.26.12,2.25,2.25,0,0,1,.91.5,2.2,2.2,0,0,0,.28.18,16.15,16.15,0,0,1,2.34,1.38c.36.23.74.44,1.1.68.6.42,1.19.84,1.78,1.28.33.23.67.44,1,.66l.43.29c.15.13.63.45,1,.7L30.6,22l-.47.35c-.29.22-.64.42-.93.62l-1.41,1c-.23.17-.47.33-.71.48a14.18,14.18,0,0,0-1.51,1,3.07,3.07,0,0,1-.35.24l-1.49.88c-.9.57-1.81,1.14-2.69,1.72S19,29.71,18,30.4l-.56.39,0-1.37V27.84c0-.65,0-1.3.06-2a9,9,0,0,0,0-.9c0-.51,0-1,0-1.53a2.62,2.62,0,0,0,0-.28l0-2.09c0-.67-.18-1.23-.23-1.9,0-.43,0-.86-.08-1.29-.07-.67-.08-1.33-.09-2,0-.15,0-.29,0-.41a1.52,1.52,0,0,1,.13-.7A1.52,1.52,0,0,0,17.42,14.5Z" fill="#003e66"/></svg>