<svg id="Ebene_2" data-name="Ebene 2" xmlns="http://www.w3.org/2000/svg" viewBox="0 0 42.52 42.52"><path d="M34.07,11a.83.83,0,0,0-.58-.58,17.63,17.63,0,0,0-3.92-.32c-4.9,0-7.84,2.62-10,6.07H14.59a2.49,2.49,0,0,0-2,1.26l-2.35,4.69a1.52,1.52,0,0,0-.12.51,1.14,1.14,0,0,0,1.14,1.14h4.93l-1.07,1.07a1.55,1.55,0,0,0,0,2.15l2.42,2.41a1.54,1.54,0,0,0,2.15,0l1.06-1.06V33.3a1.14,1.14,0,0,0,1.14,1.14,1.46,1.46,0,0,0,.51-.12L27.06,32a2.51,2.51,0,0,0,1.26-2V25c3.44-2.2,6.08-5.15,6.08-10A17.19,17.19,0,0,0,34.07,11ZM28.32,18.1a1.9,1.9,0,1,1,1.9-1.9A1.9,1.9,0,0,1,28.32,18.1Z" fill="none"/><path d="M28.32,18.13a.59.59,0,0,1-.06.14c-.1.1-.17.24-.29.31l-.09.05a1,1,0,0,1-.39.05c-.15,0-.33-.06-.5-.12l-.1,0c-.21-.16-.5-.2-.66-.45a1.34,1.34,0,0,0-.11-.14c-.07-.09-.15-.17-.22-.27a.73.73,0,0,1-.15-.32,2,2,0,0,0-.07-.23,1.69,1.69,0,0,1-.17-.62c0-.17,0-.35,0-.52a2.49,2.49,0,0,1,.28-.9.7.7,0,0,0,.11-.23,1.5,1.5,0,0,1,.41-.58,1.89,1.89,0,0,1,.59-.39,2,2,0,0,1,.46-.17,2.1,2.1,0,0,1,.75,0l.36.06a.57.57,0,0,1,.39.11c.17,0,.28.17.44.18l0,0c.08.18.24.18.34.3s.17.14.24.23a2.55,2.55,0,0,1,.38.8,3.58,3.58,0,0,1,.11.35,4.53,4.53,0,0,1,0,.52,1.94,1.94,0,0,0,0,.24.31.31,0,0,1,0,.1.76.76,0,0,0-.13.51.2.2,0,0,1,0,.11,3.33,3.33,0,0,1-.28.48c-.07.09-.13.21-.22.31a1.76,1.76,0,0,1-.3.24l-.15.12-.17.12a1.09,1.09,0,0,1-.41.22c-.1,0-.19.15-.28.2s-.18-.22-.15-.49a1.32,1.32,0,0,1,.16-.52l.07-.1s.05,0,.06-.08a.87.87,0,0,1,.16-.47s0,0,0-.06.05-.11.1-.13.05,0,.05,0,.12-.22.21-.32,0-.11.08-.16a1.18,1.18,0,0,0,.2-.27.43.43,0,0,0,0-.19V16a.41.41,0,0,0,0-.36s0-.09,0-.12a1.88,1.88,0,0,0-.16-.23.73.73,0,0,1-.1-.13c-.05-.1-.13-.22-.25-.24a.18.18,0,0,1-.07,0,1.21,1.21,0,0,0-.3-.25,1.47,1.47,0,0,0-.75-.15,1.63,1.63,0,0,0-.87.38,3.82,3.82,0,0,0-.37.42,2.83,2.83,0,0,0-.17.4c-.08.17-.05.35-.13.53a.53.53,0,0,0,0,.25c0,.14.06.28.07.43a.24.24,0,0,0,0,.08,2.27,2.27,0,0,0,.27.54c.12.15.37.14.53.2a1.31,1.31,0,0,0,.32.1c.18,0,.33.05.48.08a.16.16,0,0,1,.1,0,.2.2,0,0,1,.16.14S28.29,18.1,28.32,18.13Z" fill="#68c0b5"/><path d="M34.05,11a.9.9,0,0,0-.32-.26.4.4,0,0,0-.28-.07l-.36,0-.79,0h-.4c-.62,0-1.21.05-1.87.06a11.33,11.33,0,0,0-2.41.26l-.47.11A9.84,9.84,0,0,0,24,12.69a7,7,0,0,0-.64.47,9.52,9.52,0,0,0-1.11,1.09c-.36.39-.68.79-1,1.19a10.08,10.08,0,0,0-.67.92L20.1,17c0,.15-.19.12-.31.12h-.38l-.95,0c-.52,0-1,0-1.56,0H14.52a1.68,1.68,0,0,0-1.13.7l-1,2c-.19.37-.39.74-.55,1.11s-.48,1-.73,1.53c-.09.17-.08.22-.08.25a.25.25,0,0,0,.08.15l.08,0c.05,0,0,0,.19,0l.86,0,1.72,0,2.16,0,1.08,0h.67s.14,0,.08,0l-.2.19-1.22,1.25-.61.62a2.83,2.83,0,0,0-.46.51.86.86,0,0,0,.16,1c.43.48.86,1,1.32,1.42l.77.77.19.2.13.12a1.13,1.13,0,0,0,.32.19,1.7,1.7,0,0,0,.45,0,1.41,1.41,0,0,0,.22-.06.45.45,0,0,0,.13-.06,1.57,1.57,0,0,0,.21-.17c.54-.48,1-.87,1.47-1.39.1-.09.21-.21.28-.26l.08-.06s0,.07,0,.1v.27l0,.51v2.6c0,.64,0,1.29,0,1.94,0,.21,0,.49,0,.63a.8.8,0,0,0,.17.44.82.82,0,0,0,.9.26c.75-.32,1.61-.75,2.41-1.12l2.05-1a2.33,2.33,0,0,0,1.5-2.49c0-.5,0-1,0-1.49a4.28,4.28,0,0,1,0-.62c0-.55.05-1.09,0-1.63v-.84s.06-.05.09-.08l.41-.3.31-.25c.16-.13.32-.27.48-.38a12.54,12.54,0,0,0,2.34-2.26,8.44,8.44,0,0,0,1.12-1.8,8.82,8.82,0,0,0,.73-2,6.76,6.76,0,0,0,.18-1,9.81,9.81,0,0,0,.08-1.08c0-.78,0-1.62-.11-2.39a7.4,7.4,0,0,0-.31-1.45c0-.62.06-.88.36-.74a1.67,1.67,0,0,1,.71,1.13c.06.23.11.47.15.71s.06.44.11.59a8.28,8.28,0,0,1,.31,3.07c0,.19-.07.39-.06.56a5.16,5.16,0,0,1-.48,2c-.09.2-.2.4-.27.6A10.4,10.4,0,0,1,31,24.14c-.32.28-.66.53-1,.79l-.51.36-.25.17h0a9.57,9.57,0,0,0-.07,1.34l-.08,2,0,1.11a3,3,0,0,1-.41,1.4,3.23,3.23,0,0,1-.8.94,2.74,2.74,0,0,1-.54.32l-.43.2L26,33.2c-.58.27-1.15.54-1.71.83-.36.19-.76.34-1.12.52s-.37.19-.69.33A2,2,0,0,1,22,35a1.9,1.9,0,0,1-.54,0,1.74,1.74,0,0,1-1.32-1.49c0-.65,0-1.09,0-1.65l.07-1.5a7.65,7.65,0,0,0,0-.83c0-.11-.07,0-.1,0l-.13.11-.29.25a1.18,1.18,0,0,1-.19.11,2,2,0,0,1-.44.17,1.93,1.93,0,0,1-1.79-.52l-2-2.17a4.91,4.91,0,0,1-.51-.58A1.67,1.67,0,0,1,15,24.79l.57-.55.3-.29.08-.07h-.28l-1.59,0-1.72,0h-.86a1.57,1.57,0,0,1-.83-.14,1.14,1.14,0,0,1-.4-1.64l.9-1.72c.45-.9.9-1.78,1.35-2.67a2.4,2.4,0,0,1,1.25-1.16,3.82,3.82,0,0,1,1.76-.14c.54,0,1.12,0,1.67,0h2.39l.11-.17.24-.33.3-.43a13.28,13.28,0,0,1,2.6-2.79,10.7,10.7,0,0,1,2.9-1.9,10.8,10.8,0,0,1,2.31-.62,16.46,16.46,0,0,1,3.7-.11,7.27,7.27,0,0,1,.77.1,5.45,5.45,0,0,1,.76.17.72.72,0,0,1,.49.28A.93.93,0,0,1,34.05,11Z" fill="#68c0b5"/></svg>