<svg id="Ebene_2" data-name="Ebene 2" xmlns="http://www.w3.org/2000/svg" viewBox="0 0 42.52 42.52"><path d="M31.33,20.47a1.42,1.42,0,0,1,.12.33A5.26,5.26,0,0,1,31.68,22a1.82,1.82,0,0,1,0,.33,7.39,7.39,0,0,1-.24,1.52,12.76,12.76,0,0,1-.74,1.91c-.07.13-.14.26-.21.37a9.45,9.45,0,0,1-1.95,2.46c-.17.14-.35.31-.54.45a10.75,10.75,0,0,1-1.11.8,6,6,0,0,1-1.21.61c-.28.12-.59.21-.87.33a9.71,9.71,0,0,1-2.45.57l-1,.05c-.34,0-.67,0-1,0a10.82,10.82,0,0,1-3.54-1l-.9-.44a9.17,9.17,0,0,1-2.23-1.64A9.92,9.92,0,0,1,12,26.14a9.43,9.43,0,0,1-.8-1.74,9.92,9.92,0,0,1-.54-3c0-.52,0-1,0-1.53a5.83,5.83,0,0,1,.29-1.7,10.87,10.87,0,0,1,.7-2,1.72,1.72,0,0,1,.09-.19c.39-.55.66-1.15,1.09-1.66s.63-.78,1-1.14a10.62,10.62,0,0,1,3.5-2.2l.82-.3.85-.23c.42-.09.85-.13,1.27-.19s.86-.07,1.28,0a11.07,11.07,0,0,1,1.15.06,2.32,2.32,0,0,1,.46.07c.81.23,1.6.45,2.39.72a3.52,3.52,0,0,1,.45.18,11.69,11.69,0,0,1,2.14,1.42,13.83,13.83,0,0,1,1.24,1.18,12.32,12.32,0,0,1,1,1.4,7.43,7.43,0,0,1,.4.73,5.39,5.39,0,0,1,.39.8,8.75,8.75,0,0,1,.62,1.85c.08.41.24.85.3,1.22-.05.53-.2.71-.47.55a1.41,1.41,0,0,1-.56-.9c0-.17-.11-.33-.16-.5a1.52,1.52,0,0,0-.14-.41,4.59,4.59,0,0,1-.57-1,8,8,0,0,0-.44-.85,2.46,2.46,0,0,0-.19-.32,5.44,5.44,0,0,1-.7-1.11,4.15,4.15,0,0,0-.24-.34,14,14,0,0,0-2.56-2.25A8.6,8.6,0,0,0,24.61,12,9.66,9.66,0,0,0,22,11.23a8.69,8.69,0,0,0-1.53,0c-.22,0-.44.05-.66.07a7.06,7.06,0,0,0-2.55.69,8.17,8.17,0,0,0-.79.38,6.18,6.18,0,0,0-.82.55,7.7,7.7,0,0,0-.76.63c-.29.24-.53.53-.8.79a6.54,6.54,0,0,0-1.36,1.94,4.74,4.74,0,0,1-.26.5,9.73,9.73,0,0,0-.76,2.16,9.49,9.49,0,0,0,2.54,8.71,11.69,11.69,0,0,0,2.3,1.76,10.41,10.41,0,0,0,2.08.84,12.77,12.77,0,0,0,2.7.42,7.62,7.62,0,0,0,1.26-.08,13.43,13.43,0,0,0,2.09-.46L25,30a10,10,0,0,0,2.57-1.44,8.11,8.11,0,0,0,1.69-2.05,8.3,8.3,0,0,0,.86-1.54,12.57,12.57,0,0,0,.8-2.58c0-.2.06-.39.09-.56a5.22,5.22,0,0,1,.21-.94A3.45,3.45,0,0,0,31.33,20.47Z" fill="#68c0b5"/><path d="M19,18.42l.07,0a.65.65,0,0,1,.16.13s0,0,0,0a.51.51,0,0,1,0,.17,1.7,1.7,0,0,1,0,.22s0,0,0,0-.08.22-.19.29l-.06.05-.11.1a.35.35,0,0,1-.14.06.29.29,0,0,0-.1,0,.64.64,0,0,1-.27.07,1.62,1.62,0,0,1-.22,0,1.06,1.06,0,0,1-.39-.13l-.1,0a.64.64,0,0,1-.25-.18.78.78,0,0,1-.17-.26,1.46,1.46,0,0,1-.07-.19.91.91,0,0,1,0-.33l0-.15a.18.18,0,0,1,.05-.16c0-.08.08-.12.08-.19s0,0,0,0,.08-.1.13-.13a.81.81,0,0,0,.09-.1,1.26,1.26,0,0,1,.34-.15l.14-.05h.22l.1,0h0a.26.26,0,0,0,.21.05,0,0,0,0,1,.05,0c.06,0,.14.06.2.11l.13.09a.64.64,0,0,1,.1.13l.05.06.06.07a.42.42,0,0,1,.1.17,1.06,1.06,0,0,0,.1.12q0,.09-.24.06a.67.67,0,0,1-.27-.06l0,0h0a1.21,1.21,0,0,1-.23,0h0c-.07,0-.05,0-.05,0a0,0,0,0,0,0,0c-.07,0-.08,0-.11-.06l0,0a.38.38,0,0,0-.09-.09.07.07,0,0,0-.06,0h0A.12.12,0,0,0,18,18s0,0,0,0l-.08.06s0,0-.05,0-.1,0-.1.09l0,0a.38.38,0,0,0-.11.11.49.49,0,0,0-.08.29.57.57,0,0,0,.14.35.75.75,0,0,0,.16.15.51.51,0,0,0,.17.07c.06,0,.14,0,.21.06a.17.17,0,0,0,.1,0l.18,0h0a1.51,1.51,0,0,0,.22-.11c.07-.05.05-.16.07-.23a.79.79,0,0,0,0-.13,1.12,1.12,0,0,1,0-.2,0,0,0,0,1,0,0,.09.09,0,0,1,.07-.06Z" fill="#68c0b5"/><path d="M24.39,18.42l.07,0c.06,0,.13.07.16.13l0,0a.51.51,0,0,1,0,.17,1.74,1.74,0,0,1-.05.22.06.06,0,0,1,0,0c-.07.09-.08.22-.19.29l-.06.05-.12.1a.35.35,0,0,1-.14.06l-.1,0a.59.59,0,0,1-.26.07,1.77,1.77,0,0,1-.23,0,1.06,1.06,0,0,1-.39-.13l-.1,0a.64.64,0,0,1-.25-.18.76.76,0,0,1-.16-.26,1.46,1.46,0,0,1-.07-.19.91.91,0,0,1,0-.33.4.4,0,0,0,0-.15.19.19,0,0,1,.06-.16c0-.08.07-.12.08-.19v0c.09,0,.08-.1.14-.13s.05-.07.09-.1a1.14,1.14,0,0,1,.34-.15l.14-.05h.22l.1,0h0a.25.25,0,0,0,.21.05,0,0,0,0,1,0,0c.06,0,.14.06.2.11l.14.09a.64.64,0,0,1,.1.13l.05.06.06.07a.59.59,0,0,1,.1.17s.07.08.1.12-.12.08-.25.06a.66.66,0,0,1-.26-.06l-.05,0h0a.86.86,0,0,1-.22,0h0c-.07,0,0,0-.05,0s0,0,0,0-.08,0-.11-.06l-.05,0a.32.32,0,0,0-.08-.09.07.07,0,0,0-.06,0h0s-.1,0-.13,0,0,0-.05,0l-.08.06a.09.09,0,0,1-.05,0s-.09,0-.1.09l0,0-.11.11a.57.57,0,0,0-.08.29.58.58,0,0,0,.15.35.57.57,0,0,0,.16.15.56.56,0,0,0,.16.07c.07,0,.14,0,.21.06a.21.21,0,0,0,.11,0l.17,0h0a1.63,1.63,0,0,0,.23-.11c.06-.05,0-.16.06-.23a.35.35,0,0,0,0-.13,1.06,1.06,0,0,1,0-.2,0,0,0,0,1,0,0,.07.07,0,0,1,.06-.06Z" fill="#68c0b5"/><path d="M15.83,23.08a.35.35,0,0,1,.12,0c.11.06.23.08.32.14l.07.05c.06.08.16.13.21.22a1.54,1.54,0,0,0,.23.29l0,.06c.08.18.27.26.35.43a.39.39,0,0,0,.08.1,1.29,1.29,0,0,0,.16.17.65.65,0,0,1,.15.18.29.29,0,0,0,.1.12c.11.1.24.17.35.28a1.94,1.94,0,0,0,.27.21c.17.13.35.24.53.36a.46.46,0,0,0,.16.07,4.13,4.13,0,0,1,.45.17l.45.19.32.11.54.17a1,1,0,0,0,.29.06.64.64,0,0,1,.33,0c.13-.05.28,0,.41,0s0,0,0,0,.26,0,.4,0,.19-.06.29-.07a4.07,4.07,0,0,0,.81-.22A3.07,3.07,0,0,0,23.6,26a3.4,3.4,0,0,0,.45-.28c.06,0,.11-.11.17-.17s0-.05.07-.06a.64.64,0,0,0,.36-.36.25.25,0,0,1,0-.09,2.15,2.15,0,0,0,.32-.41,1.4,1.4,0,0,0,.15-.3,2.09,2.09,0,0,0,.16-.29l.06-.15a1,1,0,0,0,0-.17c0-.13,0-.25.08-.37a.72.72,0,0,0,0-.25c.08-.07.21-.07.38,0a.5.5,0,0,1,.3.31v.13a.5.5,0,0,0,0,.12c.18.25.06.46.06.59s0,.06,0,.1-.07.23-.13.32-.06.05-.07.09a1.76,1.76,0,0,1-.51.75c-.11.1-.19.22-.3.31a4.18,4.18,0,0,1-.63.4l-.33.2-.16.08c-.21.08-.42.16-.62.26s-.14,0-.21.06-.3.12-.46.18l-.27.05a3.56,3.56,0,0,0-.57.08.22.22,0,0,1-.14,0c-.19,0-.37,0-.55-.06a7.56,7.56,0,0,1-1-.18,9.52,9.52,0,0,1-1.07-.34,4.18,4.18,0,0,1-.56-.28c-.14-.08-.28-.14-.41-.23a2,2,0,0,1-.46-.36,1.12,1.12,0,0,0-.2-.17,1.34,1.34,0,0,1-.31-.32l-.06-.06a5.58,5.58,0,0,1-.38-.47c-.12-.15-.32-.21-.46-.36s-.16-.21-.25-.31a1.84,1.84,0,0,1-.31-.52.56.56,0,0,1,0-.12.29.29,0,0,1,0-.23S15.82,23.12,15.83,23.08Z" fill="#68c0b5"/></svg>