<svg id="Ebene_2" data-name="Ebene 2" xmlns="http://www.w3.org/2000/svg" viewBox="0 0 42.52 42.52"><path d="M25.19,20.47c0,.06.1.08.13.16a2.45,2.45,0,0,1,.29.61,1.13,1.13,0,0,1,0,.18,3,3,0,0,1-.05.78,6.45,6.45,0,0,1-.34,1,.85.85,0,0,1-.1.19,4.51,4.51,0,0,1-1,1.29l-.28.23a5.93,5.93,0,0,1-.56.43,2.63,2.63,0,0,1-.63.31l-.46.16a4.39,4.39,0,0,1-1.26.31c-.34,0-.69,0-1,0a5.28,5.28,0,0,1-1.82-.52l-.46-.23a3.8,3.8,0,0,1-1.16-.83,4.81,4.81,0,0,1-.85-1.16,5.15,5.15,0,0,1-.38-.91,4.7,4.7,0,0,1-.2-1.53l.05-.77a2.07,2.07,0,0,1,.17-.84,6,6,0,0,1,.37-1,.25.25,0,0,1,0-.09c.26-.24.35-.55.58-.79s.31-.39.49-.56a5.36,5.36,0,0,1,1.74-1,4.5,4.5,0,0,1,.81-.26,5.1,5.1,0,0,1,1.23-.09c.19,0,.37,0,.56,0a.91.91,0,0,1,.23,0,7.72,7.72,0,0,0,1.16.34.52.52,0,0,1,.22.07,6.67,6.67,0,0,1,1.07.68,8.15,8.15,0,0,1,.63.56,5.74,5.74,0,0,1,.51.68,4.05,4.05,0,0,1,.21.35c.08.13.15.26.22.39a3.82,3.82,0,0,1,.36.92c.05.2.18.42.23.6s-.21.37-.48.29a.86.86,0,0,1-.54-.41l-.11-.23c0-.06,0-.14-.11-.18-.4-.23-.5-.59-.66-.75s0-.1-.1-.13c-.21-.11-.24-.28-.33-.45a.75.75,0,0,0-.09-.15c-.4-.31-.71-.65-1.11-.92a4.25,4.25,0,0,0-.6-.31,5,5,0,0,0-1.11-.4,3.65,3.65,0,0,0-.66,0l-.29,0a2.41,2.41,0,0,0-1.12.24c-.11.06-.25.08-.36.15a3.9,3.9,0,0,0-.69.52c-.13.1-.24.23-.37.34a2.1,2.1,0,0,0-.63.84,1.27,1.27,0,0,1-.13.22,3.87,3.87,0,0,0-.42,1,4.17,4.17,0,0,0-.08,2,4.42,4.42,0,0,0,1.11,2.1,6.48,6.48,0,0,0,1.08.86,5,5,0,0,0,1,.4,8.77,8.77,0,0,0,1.28.23,3.12,3.12,0,0,0,.61,0c.34,0,.67-.13,1-.21a1.06,1.06,0,0,0,.19-.06,4.6,4.6,0,0,0,1.25-.68,3.21,3.21,0,0,0,.72-1.06,2.88,2.88,0,0,0,.36-.75,8.09,8.09,0,0,0,.33-1.21,1.58,1.58,0,0,1,.05-.25,1,1,0,0,1,.16-.44A1,1,0,0,0,25.19,20.47Z" fill="#68c0b5"/><path d="M20.4,13a.57.57,0,0,1-.15,0c-.1,0-.25-.06-.34-.1l-.06,0s-.12-.08-.14-.13-.07-.11-.1-.17v0c0-.09-.13-.17-.09-.26a.07.07,0,0,0,0-.06l0-.11a.11.11,0,0,1,0-.11s0,0,0-.08-.06-.14,0-.21,0-.11,0-.17a1.57,1.57,0,0,1,.05-.3.08.08,0,0,0,0-.08c-.05-.08,0-.16,0-.23a1.09,1.09,0,0,1,.07-.24l.06-.16a1.65,1.65,0,0,1,.15-.25.24.24,0,0,0,.07-.13c0-.05,0-.1.06-.15s.08-.12,0-.19,0,0,0,0,.05-.12.09-.17,0-.09,0-.14a2.6,2.6,0,0,0,.13-.36.85.85,0,0,0,0-.16l0-.22a.31.31,0,0,0,0-.1s0,0,0,0,0-.15,0-.22,0,0,0-.05,0-.15,0-.22S20,8,20,7.9a.8.8,0,0,0,0-.15l0-.07a.35.35,0,0,0-.05-.08.76.76,0,0,1-.11-.16s-.11-.08-.16-.11a1,1,0,0,1,.49,0,1.64,1.64,0,0,1,.52.08l.08,0a.19.19,0,0,0,.08,0,.52.52,0,0,1,.4.2s0,0,0,0,.07.09.06.13,0,0,0,0,.09.23.07.34,0,.11,0,.16a1.91,1.91,0,0,1-.15.28.8.8,0,0,0,0,.15l0,.06a.47.47,0,0,0-.1.26s0,.05,0,.08a1.21,1.21,0,0,1,0,.19.22.22,0,0,1,0,.11c0,.07-.11.15-.07.22s0,0,0,.06-.12.14-.16.21a3.62,3.62,0,0,0-.19.4,2,2,0,0,0-.12.46,2.56,2.56,0,0,1-.05.27c0,.06,0,.13,0,.2s0,.16-.06.24,0,.08,0,.11a.31.31,0,0,1,0,.19.08.08,0,0,0,0,0c0,.09,0,.17,0,.26s.18.15.22.24.05.11.09.16a.51.51,0,0,1,.09.25.09.09,0,0,1,0,0s0,.07-.13.09S20.43,13,20.4,13Z" fill="#68c0b5"/><path d="M20.4,34.73l-.15,0a3.38,3.38,0,0,1-.34-.11l-.06,0s-.12-.08-.14-.12-.07-.12-.1-.18,0,0,0,0-.13-.17-.09-.26a.07.07,0,0,0,0-.06l0-.12a.12.12,0,0,1,0-.11s0,0,0-.07-.06-.14,0-.21,0-.11,0-.17a1.81,1.81,0,0,1,.05-.31.08.08,0,0,0,0-.08c-.05-.07,0-.15,0-.23a1,1,0,0,1,.07-.23l.06-.16a1.74,1.74,0,0,1,.15-.26.19.19,0,0,0,.07-.13s0-.1.06-.15.08-.12,0-.18,0,0,0,0,.05-.11.09-.17,0-.09,0-.13a2.6,2.6,0,0,0,.13-.36.85.85,0,0,0,0-.16l0-.23a.93.93,0,0,0,0-.1,0,0,0,0,1,0,0c.07-.07,0-.15,0-.22l0,0c0-.08,0-.15,0-.23s0-.1-.07-.15a.89.89,0,0,0,0-.14l0-.08-.05-.07a.82.82,0,0,1-.11-.17s-.11-.07-.16-.1A.94.94,0,0,1,20.1,29a1.64,1.64,0,0,1,.52.08l.08.05a.12.12,0,0,0,.08,0,.61.61,0,0,1,.4.2s0,0,0,0,.07.08.06.13,0,0,0,0,.09.22.07.34,0,.1,0,.16a1.82,1.82,0,0,1-.15.27.8.8,0,0,0,0,.15l0,.07a.44.44,0,0,0-.1.25s0,.06,0,.09a1.28,1.28,0,0,1,0,.19.18.18,0,0,1,0,.1c0,.08-.11.15-.07.23s0,0,0,.05-.12.15-.16.22a2.93,2.93,0,0,0-.19.4,2,2,0,0,0-.12.46,2.38,2.38,0,0,1-.05.26c0,.07,0,.14,0,.2s0,.16-.06.25,0,.07,0,.11a.32.32,0,0,1,0,.19s0,0,0,0,0,.17,0,.26.18.15.22.23.05.11.09.17a.48.48,0,0,1,.09.24.07.07,0,0,1,0,.05s0,.07-.13.09Z" fill="#68c0b5"/><path d="M28.45,21c0-.06,0-.11,0-.14s.07-.26.11-.35l0,0c0-.05.08-.13.13-.15a1,1,0,0,0,.17-.09l0,0c.1,0,.17-.13.27-.08h.05l.12,0a.11.11,0,0,1,.11,0,.11.11,0,0,0,.08,0c.07,0,.13-.07.21,0s.11,0,.16,0l.31.05h.08a.31.31,0,0,1,.23,0,.65.65,0,0,1,.23.06l.16.06a1.22,1.22,0,0,1,.26.16.25.25,0,0,0,.13.06.14.14,0,0,1,.15.06c.06-.05.12.08.18,0s0,0,0,0,.11,0,.17.09.09,0,.13,0a2.79,2.79,0,0,0,.37.14h.15a.91.91,0,0,0,.23,0,.24.24,0,0,0,.1-.05s0,0,0,0,.15.06.22,0,0,0,0,0,.15-.05.23-.05.1-.05.15-.06l.15,0,.07,0,.07-.05.17-.11s.07-.11.1-.16a1,1,0,0,1,0,.49,1.64,1.64,0,0,1-.08.52.56.56,0,0,1-.05.08s0,0,0,.08a.6.6,0,0,1-.2.41s0,0,0,0-.08.07-.12.07,0,0,0,0-.22.09-.34.07-.1,0-.16,0l-.27-.14a.42.42,0,0,0-.15,0l-.06,0c-.09-.06-.17-.12-.26-.1s-.06,0-.08,0h-.19a.35.35,0,0,1-.11,0c-.08-.05-.15-.1-.23-.07s0,0-.05,0a1.7,1.7,0,0,0-.22-.15,2.4,2.4,0,0,0-.39-.2,2,2,0,0,0-.47-.12,1.32,1.32,0,0,1-.26,0c-.07,0-.13,0-.2,0s-.16,0-.24-.06-.08,0-.12,0a.27.27,0,0,1-.19,0h0a2.48,2.48,0,0,1-.27,0c-.08,0-.15.18-.23.23a.51.51,0,0,0-.16.09.52.52,0,0,1-.25.08h-.05s-.07,0-.09-.13Z" fill="#68c0b5"/><path d="M6.7,21a.42.42,0,0,1,0-.14c0-.11.06-.26.1-.35l0,0A.67.67,0,0,1,7,20.29a.56.56,0,0,0,.17-.09l0,0c.09,0,.17-.13.26-.08h.06l.11,0a.11.11,0,0,1,.11,0,.13.13,0,0,0,.08,0c.07,0,.14-.07.21,0s.11,0,.17,0l.3.05h.08a.31.31,0,0,1,.23,0,.71.71,0,0,1,.24.06l.16.06a1.17,1.17,0,0,1,.25.16.3.3,0,0,0,.13.06.14.14,0,0,1,.15.06c.06-.05.13.08.19,0s0,0,0,0,.12,0,.18.09.08,0,.13,0a2.67,2.67,0,0,0,.36.14h.16a.83.83,0,0,0,.22,0,.19.19,0,0,0,.1-.05s0,0,.05,0,.14.06.22,0,0,0,0,0,.15-.05.22-.05.1-.05.15-.06l.15,0,.07,0,.08-.05.16-.11s.08-.11.11-.16a1,1,0,0,1,0,.49,1.64,1.64,0,0,1-.08.52.22.22,0,0,1-.05.08s0,0,0,.08a.56.56,0,0,1-.2.41s0,0,0,0-.09.07-.13.07,0,0,0,0-.23.09-.34.07-.11,0-.16,0L11,21.78a.37.37,0,0,0-.14,0l-.07,0c-.09-.06-.17-.12-.26-.1s-.05,0-.08,0h-.19l-.11,0c-.07-.05-.15-.1-.22-.07s0,0-.06,0l-.21-.15a2.49,2.49,0,0,0-.4-.2A2,2,0,0,0,8.83,21a1.09,1.09,0,0,1-.26,0c-.07,0-.14,0-.21,0s-.16,0-.24-.06-.08,0-.11,0a.25.25,0,0,1-.19,0h0a2.3,2.3,0,0,1-.26,0c-.08,0-.15.18-.24.23a.65.65,0,0,0-.16.09.49.49,0,0,1-.25.08h0s-.07,0-.09-.13S6.71,21,6.7,21Z" fill="#68c0b5"/><path d="M26.08,15.49,26,15.37a3.18,3.18,0,0,1-.16-.32.14.14,0,0,1,0-.06c0-.06,0-.15,0-.19a1.05,1.05,0,0,0,.05-.19.06.06,0,0,1,0,0c.08-.05,0-.21.13-.24a.1.1,0,0,0,.05,0s0-.07.05-.1a.13.13,0,0,1,.1-.07s0,0,.06,0,0-.14.12-.17.08-.08.12-.12a1.44,1.44,0,0,1,.25-.18s.05,0,.06-.06.09-.13.15-.18a1.32,1.32,0,0,1,.2-.12l.16-.07a1.37,1.37,0,0,1,.29-.07.26.26,0,0,0,.14,0A.14.14,0,0,1,27.9,13c0-.08.14,0,.15-.11h0c.14,0,.12-.05.19-.06s.06-.06.1-.08a2,2,0,0,0,.36-.16l.1-.11a.86.86,0,0,0,.18-.14.36.36,0,0,0,0-.11s0,0,0,0,.14-.06.13-.18a.07.07,0,0,1,0,0c.07,0,.08-.13.13-.19s0-.1.06-.15a.91.91,0,0,1,.08-.13l0-.07a.29.29,0,0,1,0-.09.45.45,0,0,1,0-.2.59.59,0,0,0,0-.19c.09,0,.21.12.38.32a1.47,1.47,0,0,1,.31.42l0,.1a.15.15,0,0,0,0,.08.53.53,0,0,1,.15.43s0,0,0,.05,0,.11,0,.14,0,0,0,0-.09.22-.19.28-.06.09-.11.12l-.3.09a.91.91,0,0,0-.13.08l-.06,0a.39.39,0,0,0-.25.11s-.07,0-.09,0l-.13.13a.21.21,0,0,1-.1.06c-.09,0-.18,0-.21.11s0,0,0,0a1.17,1.17,0,0,0-.26,0,2.59,2.59,0,0,0-.42.14,1.87,1.87,0,0,0-.41.25,1.64,1.64,0,0,1-.22.14c-.07,0-.09.11-.16.14s-.1.12-.21.13a.14.14,0,0,0-.08.07.29.29,0,0,1-.16.11l0,0c-.06.06-.15.1-.21.16s0,.23,0,.32,0,.11-.05.18a.53.53,0,0,1-.11.24l-.05,0s-.08,0-.15,0S26.12,15.5,26.08,15.49Z" fill="#68c0b5"/><path d="M10.7,30.88l-.08-.13c0-.1-.13-.22-.17-.31a.21.21,0,0,1,0-.06c0-.07,0-.16,0-.2a1.06,1.06,0,0,0,.06-.19s0,0,0,0,0-.22.13-.25,0,0,0,0l.06-.11a.11.11,0,0,1,.09-.06.18.18,0,0,0,.07-.05c0-.05,0-.14.12-.17s.07-.08.12-.12l.25-.18s.05,0,.05-.06.09-.13.15-.18a1.43,1.43,0,0,1,.21-.12l.16-.07.29-.07s.11,0,.14,0a.14.14,0,0,1,.14-.06c0-.07.15,0,.16-.1s0,0,0,0,.11-.06.18-.06.07-.07.11-.08a2.26,2.26,0,0,0,.35-.17l.11-.11.18-.14a.42.42,0,0,0,0-.1,0,0,0,0,1,0,0c.1,0,.14-.07.13-.19s0,0,0-.05.07-.13.12-.19,0-.1.06-.15a.57.57,0,0,0,.08-.13s0,0,0-.07a.29.29,0,0,0,0-.09.9.9,0,0,1,0-.19s0-.13,0-.19a1.09,1.09,0,0,1,.38.31,1.91,1.91,0,0,1,.31.43.29.29,0,0,1,0,.09s0,0,0,.08a.65.65,0,0,1,.15.43s0,0,0,0,0,.11,0,.14,0,0,0,0c0,.17-.1.22-.19.29s-.07.08-.12.11a1.23,1.23,0,0,1-.29.09,1.48,1.48,0,0,0-.13.08l-.06,0a.42.42,0,0,0-.26.11s-.06,0-.08,0l-.14.14a.19.19,0,0,1-.09,0c-.09,0-.18,0-.21.11a.05.05,0,0,1,0,0l-.26,0a3.44,3.44,0,0,0-.42.14,1.87,1.87,0,0,0-.41.25l-.23.15c-.06,0-.09.1-.15.13s-.1.13-.21.13-.06.05-.09.08a.33.33,0,0,1-.16.11,0,0,0,0,0,0,0c-.07.06-.15.1-.21.16s0,.24,0,.33a1.09,1.09,0,0,0-.05.17.46.46,0,0,1-.12.24s0,0,0,0-.08,0-.15,0Z" fill="#68c0b5"/><path d="M26.12,26.85l.12-.08c.11-.05.22-.13.32-.17l.06,0c.06,0,.15,0,.19,0a1.06,1.06,0,0,0,.19.06h0c.05.08.21,0,.24.12a.07.07,0,0,0,0,0l.1.06a.13.13,0,0,1,.07.09.1.1,0,0,0,0,.07s.14,0,.17.12.08.07.12.12a1.14,1.14,0,0,1,.18.25s0,.05.06.05.13.09.18.15a1.43,1.43,0,0,1,.12.21c0,.05.05.1.07.16a1.23,1.23,0,0,1,.07.29.29.29,0,0,0,.05.14s.08.06.06.14,0,.15.11.16h0c-.05.13.05.11.06.18s.06.07.08.11a2.21,2.21,0,0,0,.16.35.57.57,0,0,0,.11.11l.14.18.11,0a0,0,0,0,1,0,0c0,.1.06.14.18.13s0,0,0,0,.13.07.19.12.1,0,.15.06a.91.91,0,0,0,.13.08l.07,0,.09,0,.2,0s.13,0,.19,0a1,1,0,0,1-.32.38,1.7,1.7,0,0,1-.42.31l-.1,0s0,0-.08,0a.64.64,0,0,1-.43.15s0,0-.05,0-.11,0-.14-.05,0,0,0,0-.22-.1-.28-.19-.09-.07-.12-.12l-.09-.29a.57.57,0,0,0-.08-.13l0-.06A.42.42,0,0,0,28.4,30s0-.06,0-.08a.86.86,0,0,1-.13-.14.18.18,0,0,1-.06-.09c0-.09,0-.18-.11-.21s0,0,0-.05a1,1,0,0,0,0-.26,2.3,2.3,0,0,0-.14-.42,2.22,2.22,0,0,0-.25-.42,1.64,1.64,0,0,1-.14-.22c0-.06-.11-.09-.14-.15s-.12-.1-.13-.21,0-.06-.07-.09a.24.24,0,0,1-.11-.16l0,0c-.06-.06-.1-.14-.16-.2s-.23,0-.32,0l-.18-.05a.46.46,0,0,1-.24-.12l0,0s0-.08,0-.15A.26.26,0,0,0,26.12,26.85Z" fill="#68c0b5"/><path d="M10.73,11.47a.66.66,0,0,1,.13-.08,3.27,3.27,0,0,1,.31-.17l.06,0c.07,0,.16,0,.2,0a1.05,1.05,0,0,0,.19.05l0,0c0,.08.22,0,.25.12a.09.09,0,0,0,0,0l.11.06a.09.09,0,0,1,.06.09s0,0,.05.06.14.06.17.13.08.07.12.11a2.93,2.93,0,0,1,.18.26.1.1,0,0,0,.06,0c.09,0,.13.09.18.15a1.05,1.05,0,0,1,.12.21,1,1,0,0,0,.07.15,2.46,2.46,0,0,1,.07.29c0,.06,0,.11.05.14s.07.06.06.15,0,.15.1.15,0,0,0,0,.06.11.06.18.07.06.08.11a2.26,2.26,0,0,0,.17.35,1.14,1.14,0,0,0,.11.11,1.15,1.15,0,0,0,.14.17.21.21,0,0,0,.1,0s0,0,0,0,.07.15.19.13h0c0,.07.13.08.19.13a.52.52,0,0,0,.15.06,1.48,1.48,0,0,0,.13.08l.07,0,.09,0a.53.53,0,0,1,.19,0,.81.81,0,0,0,.19,0,1.09,1.09,0,0,1-.31.38,1.77,1.77,0,0,1-.43.3l-.09,0s0,0-.08,0a.56.56,0,0,1-.43.14h0c-.14.08-.11,0-.14,0s0,0,0,0c-.17,0-.22-.1-.29-.19s-.08-.07-.11-.12a1.4,1.4,0,0,1-.09-.29c0-.06-.06-.09-.08-.14l0-.06a.39.39,0,0,0-.11-.25s0-.07,0-.09l-.14-.13a.31.31,0,0,1,0-.1c0-.08,0-.18-.11-.21s0,0,0,0a2.19,2.19,0,0,0,0-.27c0-.14-.09-.29-.14-.42a2.14,2.14,0,0,0-.25-.41l-.15-.22c0-.06-.1-.09-.13-.15s-.13-.11-.13-.21-.05-.07-.08-.09a.38.38,0,0,1-.11-.16l0,0c-.06-.06-.1-.15-.16-.21s-.24,0-.33,0a1.15,1.15,0,0,0-.17-.06.45.45,0,0,1-.24-.11s0,0,0,0,0-.08,0-.15S10.72,11.5,10.73,11.47Z" fill="#68c0b5"/></svg>