  <svg
    id="Ebene_1"
    data-name="Ebene 1"
    xmlns="http://www.w3.org/2000/svg"
    xlink="http://www.w3.org/1999/xlink"
    viewBox="0 0 195 184"
  >
    <defs>
      <clipPath id="clip-path">
        <rect x="32.03" y="38.22" width="145" height="111.64" fill="none" />
      </clipPath>
    </defs>
    <g clip-path="url(#clip-path)">
      <path
        d="M132.08,143.49a9,9,0,0,1-1.93,1c-2.51.76-4.08,1.76-6.83,2.38a14.21,14.21,0,0,1-1.83.4c-2.81.31-5.49.9-8.44,1-3.63.11-7.45.48-11.18.69-.79,0-1.58.12-2.31.1-6-.15-11,.91-17,.59-1.23-.07-2.52-.09-3.8-.06l-7.38.23a60.94,60.94,0,0,1-7.29-.13c-1.6-.13-3.32-.1-5-.1-2.26,0-4.5.12-6.75.2l-3.38.08H47.27L45,149.8c-3.88-.09-7.77-.07-11.81,0,0-3.21,0-6.47-.06-9.71l0-6.58.08-4.95.23-9.91c.05-1.8.07-3.66,0-5.4-.35-4.92-.19-9.94-.14-14.94s.25-10.07.44-15.09l.41-10.44Q34.69,64,35.23,55.2c.12-2.8.24-5.57.36-8.36,1.8.06,3.57.09,5.32.08h3.83l2.93,0a36.28,36.28,0,0,1,4.84.39c3.91-.33,8,.59,11.93.25a3.69,3.69,0,0,1,1.15,0c3.74.88,7.44.3,11.17.61,2.82.24,5.65,0,8.5.12q11.85.59,23.7,1l10.05,0,6.54.11,8,.06v2.08c0,1.33,0,2.63.12,4l.19,3.65a17.38,17.38,0,0,1,0,2.7,59.52,59.52,0,0,0,.26,14.3,15.34,15.34,0,0,1,.2,2.7c-.19,4.88.29,9.77.3,14.65,0,3.22.35,6.46.46,9.68s.16,6.43.23,9.65c.07,1.55.14,3.09.22,4.65l.35,5c.31,3.64.61,7.23.75,10.79a50,50,0,0,0,1.15,6.81c-.51,2.88-1.59,3.89-3.43,3s-3-2.74-3.61-5.4l-.57-3.11a10,10,0,0,0-.55-2.56c-2.43-4.26-2.27-10-2.81-13a15.21,15.21,0,0,0-.27-2.32c-1.05-2.89-.49-5.64-.43-8.42a20,20,0,0,0,.09-2.67c-.91-7.39-.62-14.71-.47-22,.07-3.49-.11-7,0-10.48l.44-8.9.26-4.44.15-2.23a3,3,0,0,1,.14-.45,5.17,5.17,0,0,0,.15-.93c-.32,0-.67,0-1-.11l-.24,0h-.38l-.53,0-2.11-.08c-5.56-.38-11.1-.78-16.66-.7-1.78,0-3.63-.25-5.41-.25H88.13c-2.31,0-4.63-.05-6.95-.21a127,127,0,0,0-14.69-.47A26.86,26.86,0,0,1,63,54.05c-4.67-.35-9.33-.81-14-1.09l-2.36-.14-1.85-.14-3.67-.27-.23,3.06-.21,3.64c-.12,2.74-.25,5.48-.37,8.22q-.6,15.09-.82,30.13c-.08,5.65-.18,11.3-.37,17-.15,4.38.07,8.73-.08,13.1-.1,2.63-.07,5.24-.08,7.86,0,1.41,0,2.8-.06,4.21s-.11,3-.22,4.6h.11c2.47.22,5.72.1,8.22.09,4.14,0,8.27,0,12.38.22.76.05,1.55.05,2.33.05,5.7,0,11.33.22,17,.24,5.4,0,10-1.27,15.4-1.59,3.48-.21,7-.32,10.46-.62,5.47-.47,10.82-.49,16.11-.59,1.21,0,2.35,0,3.35.07a14.87,14.87,0,0,1,5.68.87,14.07,14.07,0,0,0,2.33.52"
        fill="#003e66"
      />
    </g>
  </svg>

